<svg xmlns="http://www.w3.org/2000/svg" viewBox="0 0 192 192">
  <rect width="192" height="192" rx="38" fill="#fff5f0"/>
  <!-- body outline -->
  <path d="M60,20 Q40,30 38,70 Q36,110 40,160 Q50,180 96,182 Q142,180 152,160 Q156,110 154,70 Q152,30 132,20 Q114,14 96,14 Q78,14 60,20 Z" fill="none" stroke="#333" stroke-width="4"/>
  <!-- lungs -->
  <ellipse cx="75" cy="72" rx="22" ry="30" fill="#ffb3c6" stroke="#c0607a" stroke-width="2.5"/>
  <ellipse cx="117" cy="72" rx="22" ry="30" fill="#ffb3c6" stroke="#c0607a" stroke-width="2.5"/>
  <!-- heart -->
  <path d="M96,65 C92,58 82,58 82,67 C82,74 96,84 96,84 C96,84 110,74 110,67 C110,58 100,58 96,65 Z" fill="#ff6b8a" stroke="#c0304a" stroke-width="2"/>
  <!-- stomach -->
  <ellipse cx="88" cy="105" rx="20" ry="16" fill="#ff9eb5" stroke="#c0607a" stroke-width="2.5"/>
  <!-- liver -->
  <ellipse cx="112" cy="102" rx="18" ry="13" fill="#f0c040" stroke="#b08000" stroke-width="2.5"/>
  <!-- small intestine -->
  <path d="M70,125 Q60,130 65,140 Q70,150 80,148 Q90,146 88,136 Q86,126 96,124 Q106,122 108,132 Q110,142 100,146 Q90,150 92,158" fill="none" stroke="#7ec8e3" stroke-width="5" stroke-linecap="round"/>
  <!-- large intestine -->
  <path d="M55,148 Q50,160 60,168 Q80,178 96,178 Q112,178 132,168 Q142,160 137,148 Q130,135 120,138 Q115,140 112,148 Q108,158 96,160 Q84,158 80,148 Q77,140 72,138 Q62,135 55,148 Z" fill="#ffb347" stroke="#c07820" stroke-width="2.5"/>
</svg>
